<svg width="512" height="512" viewBox="0 0 24 24" fill="none" xmlns="http://www.w3.org/2000/svg">
  <!-- Carrito -->
  <path d="M3 3h2l2 12c.2 1 1 2 2 2h8c1 0 2-.8 2-2l1-7H6" 
        stroke="#0F6B3D" stroke-width="2" stroke-linecap="round" stroke-linejoin="round"/>
  
  <!-- Ruedas -->
  <circle cx="9" cy="20" r="1.7" fill="none" stroke="#0F6B3D" stroke-width="2"/>
  <circle cx="17" cy="20" r="1.7" fill="none" stroke="#0F6B3D" stroke-width="2"/>

  <!-- Hoja – versión orgánica, visible y clara -->
  <path d="M14.2 5.2c1.4-1.7 3.4-2 4.3-1.2 .8.8.5 2.7-1.2 4.3-1.3 1.3-3 2-4.6 1.8 
           0-1.6.6-3.3 1.5-4.9z" 
        fill="#4FAF3E"/>

  <!-- Nervadura de la hoja -->
  <path d="M15.3 5.8c-.4.9-.8 1.8-1 2.7" 
        stroke="#2F4A3A" stroke-width="1.2" stroke-linecap="round"/>
</svg>
